<?xml version="1.0" encoding="UTF-8" standalone="no"?>
<!-- Created with Inkscape (http://www.inkscape.org/) -->

<svg
   xmlns:dc="http://purl.org/dc/elements/1.1/"
   xmlns:cc="http://creativecommons.org/ns#"
   xmlns:rdf="http://www.w3.org/1999/02/22-rdf-syntax-ns#"
   xmlns:svg="http://www.w3.org/2000/svg"
   xmlns="http://www.w3.org/2000/svg"
   xmlns:sodipodi="http://sodipodi.sourceforge.net/DTD/sodipodi-0.dtd"
   xmlns:inkscape="http://www.inkscape.org/namespaces/inkscape"
   width="531.49603"
   height="177.16534"
   id="svg8190"
   version="1.1"
   inkscape:version="0.48.2 r9819"
   sodipodi:docname="aaat.svg">
  <defs
     id="defs3">
    <marker
       inkscape:stockid="Arrow2Mstart"
       orient="auto"
       refY="0"
       refX="0"
       id="Arrow2Mstart"
       style="overflow:visible">
      <path
         id="path9055"
         style="font-size:12px;fill-rule:evenodd;stroke-width:0.625;stroke-linejoin:round"
         d="M 8.7185878,4.0337352 -2.2072895,0.01601326 8.7185884,-4.0017078 c -1.7454984,2.3720609 -1.7354408,5.6174519 -6e-7,8.035443 z"
         transform="scale(0.6,0.6)"
         inkscape:connector-curvature="0" />
    </marker>
    <marker
       inkscape:stockid="Arrow2Mend"
       orient="auto"
       refY="0"
       refX="0"
       id="Arrow2Mend"
       style="overflow:visible">
      <path
         id="path9058"
         style="font-size:12px;fill-rule:evenodd;stroke-width:0.625;stroke-linejoin:round"
         d="M 8.7185878,4.0337352 -2.2072895,0.01601326 8.7185884,-4.0017078 c -1.7454984,2.3720609 -1.7354408,5.6174519 -6e-7,8.035443 z"
         transform="scale(-0.6,-0.6)"
         inkscape:connector-curvature="0" />
    </marker>
    <marker
       inkscape:stockid="Arrow2Lend"
       orient="auto"
       refY="0"
       refX="0"
       id="Arrow2Lend"
       style="overflow:visible">
      <path
         id="path9052"
         style="font-size:12px;fill-rule:evenodd;stroke-width:0.625;stroke-linejoin:round"
         d="M 8.7185878,4.0337352 -2.2072895,0.01601326 8.7185884,-4.0017078 c -1.7454984,2.3720609 -1.7354408,5.6174519 -6e-7,8.035443 z"
         transform="matrix(-1.1,0,0,-1.1,-1.1,0)"
         inkscape:connector-curvature="0" />
    </marker>
    <marker
       inkscape:stockid="Arrow1Lend"
       orient="auto"
       refY="0"
       refX="0"
       id="Arrow1Lend"
       style="overflow:visible">
      <path
         id="path9034"
         d="M 0,0 5,-5 -12.5,0 5,5 0,0 z"
         style="fill-rule:evenodd;stroke:#000000;stroke-width:1pt;marker-start:none"
         transform="matrix(-0.8,0,0,-0.8,-10,0)"
         inkscape:connector-curvature="0" />
    </marker>
  </defs>
  <sodipodi:namedview
     inkscape:document-units="mm"
     id="base"
     pagecolor="#ffffff"
     bordercolor="#666666"
     borderopacity="1.0"
     inkscape:pageopacity="0.0"
     inkscape:pageshadow="2"
     inkscape:zoom="1"
     inkscape:cx="214.81315"
     inkscape:cy="98"
     inkscape:current-layer="layer1"
     showgrid="false"
     units="mm"
     inkscape:window-width="1324"
     inkscape:window-height="966"
     inkscape:window-x="20"
     inkscape:window-y="20"
     inkscape:window-maximized="0" />
  <metadata
     id="metadata4">
    <rdf:RDF>
      <cc:Work
         rdf:about="">
        <dc:format>image/svg+xml</dc:format>
        <dc:type
           rdf:resource="http://purl.org/dc/dcmitype/StillImage" />
        <dc:title></dc:title>
      </cc:Work>
    </rdf:RDF>
  </metadata>
  <g
     inkscape:label="Layer 1"
     inkscape:groupmode="layer"
     id="layer1"
     transform="translate(0,-875.19681)">
    <path
       style="fill:none;stroke:#999999;stroke-width:2;stroke-linecap:butt;stroke-linejoin:miter;stroke-opacity:1;stroke-miterlimit:4;stroke-dasharray:none"
       d="m 428.94409,980.43071 32.17557,12.56561"
       id="path10410"
       inkscape:connector-curvature="0"
       sodipodi:nodetypes="cc" />
    <path
       style="fill:none;stroke:#999999;stroke-width:1px;stroke-linecap:butt;stroke-linejoin:miter;stroke-opacity:1"
       d="M 461.69082,960.43998 481.68156,933.2145"
       id="path11352"
       inkscape:connector-curvature="0"
       sodipodi:nodetypes="cc" />
    <path
       style="fill:none;stroke:#999999;stroke-width:1px;stroke-linecap:butt;stroke-linejoin:miter;stroke-opacity:1"
       d="m 461.11966,960.43998 31.79479,14.65987"
       id="path11354"
       inkscape:connector-curvature="0" />
    <path
       style="fill:none;stroke:#999999;stroke-width:2;stroke-linecap:butt;stroke-linejoin:miter;stroke-miterlimit:4;stroke-opacity:1;stroke-dasharray:none"
       d="m 461.11966,993.3771 0,-32.74674"
       id="path11356"
       inkscape:connector-curvature="0" />
    <path
       style="fill:none;stroke:#999999;stroke-width:1px;stroke-linecap:butt;stroke-linejoin:miter;stroke-opacity:1"
       d="m 441.70009,921.79122 19.41957,38.83914"
       id="path12300"
       inkscape:connector-curvature="0" />
    <path
       style="fill:none;stroke:#999999;stroke-width:1;stroke-linecap:butt;stroke-linejoin:miter;stroke-miterlimit:4;stroke-opacity:1;stroke-dasharray:none"
       d="M 429.89603,980.24032 459.59655,961.5823"
       id="path12492"
       inkscape:connector-curvature="0" />
    <rect
       style="fill:#ffffff;fill-opacity:1;stroke:#000000;stroke-width:1.25;stroke-linecap:round;stroke-linejoin:round;stroke-miterlimit:10;stroke-opacity:1;stroke-dasharray:none;stroke-dashoffset:0"
       id="rect8196"
       width="124.01575"
       height="124.01575"
       x="8.7433968"
       y="889.8642" />
    <path
       sodipodi:type="arc"
       style="fill:#000000;fill-opacity:1;stroke:#000000;stroke-width:1.25;stroke-linecap:round;stroke-linejoin:round;stroke-miterlimit:10;stroke-opacity:1;stroke-dasharray:none;stroke-dashoffset:0"
       id="path8204"
       sodipodi:cx="209.25194"
       sodipodi:cy="100.29043"
       sodipodi:rx="1.7246039"
       sodipodi:ry="1.7246039"
       d="m 210.97654,100.29043 c 0,0.95247 -0.77213,1.7246 -1.7246,1.7246 -0.95247,0 -1.72461,-0.77213 -1.72461,-1.7246 0,-0.952474 0.77214,-1.724606 1.72461,-1.724606 0.95247,0 1.7246,0.772132 1.7246,1.724606 z"
       transform="translate(-170,880.33067)" />
    <path
       transform="translate(-158,820.33067)"
       d="m 210.97654,100.29043 c 0,0.95247 -0.77213,1.7246 -1.7246,1.7246 -0.95247,0 -1.72461,-0.77213 -1.72461,-1.7246 0,-0.952474 0.77214,-1.724606 1.72461,-1.724606 0.95247,0 1.7246,0.772132 1.7246,1.724606 z"
       sodipodi:ry="1.7246039"
       sodipodi:rx="1.7246039"
       sodipodi:cy="100.29043"
       sodipodi:cx="209.25194"
       id="path8206"
       style="fill:#000000;fill-opacity:1;stroke:#000000;stroke-width:1.25;stroke-linecap:round;stroke-linejoin:round;stroke-miterlimit:10;stroke-opacity:1;stroke-dasharray:none;stroke-dashoffset:0"
       sodipodi:type="arc" />
    <path
       sodipodi:type="arc"
       style="fill:#000000;fill-opacity:1;stroke:#000000;stroke-width:1.25;stroke-linecap:round;stroke-linejoin:round;stroke-miterlimit:10;stroke-opacity:1;stroke-dasharray:none;stroke-dashoffset:0"
       id="path8208"
       sodipodi:cx="209.25194"
       sodipodi:cy="100.29043"
       sodipodi:rx="1.7246039"
       sodipodi:ry="1.7246039"
       d="m 210.97654,100.29043 c 0,0.95247 -0.77213,1.7246 -1.7246,1.7246 -0.95247,0 -1.72461,-0.77213 -1.72461,-1.7246 0,-0.952474 0.77214,-1.724606 1.72461,-1.724606 0.95247,0 1.7246,0.772132 1.7246,1.724606 z"
       transform="translate(-138,860.33067)" />
    <path
       transform="translate(-118,832.33067)"
       d="m 210.97654,100.29043 c 0,0.95247 -0.77213,1.7246 -1.7246,1.7246 -0.95247,0 -1.72461,-0.77213 -1.72461,-1.7246 0,-0.952474 0.77214,-1.724606 1.72461,-1.724606 0.95247,0 1.7246,0.772132 1.7246,1.724606 z"
       sodipodi:ry="1.7246039"
       sodipodi:rx="1.7246039"
       sodipodi:cy="100.29043"
       sodipodi:cx="209.25194"
       id="path8210"
       style="fill:#000000;fill-opacity:1;stroke:#000000;stroke-width:1.25;stroke-linecap:round;stroke-linejoin:round;stroke-miterlimit:10;stroke-opacity:1;stroke-dasharray:none;stroke-dashoffset:0"
       sodipodi:type="arc" />
    <path
       sodipodi:type="arc"
       style="fill:#000000;fill-opacity:1;stroke:#000000;stroke-width:1.25;stroke-linecap:round;stroke-linejoin:round;stroke-miterlimit:10;stroke-opacity:1;stroke-dasharray:none;stroke-dashoffset:0"
       id="path8212"
       sodipodi:cx="209.25194"
       sodipodi:cy="100.29043"
       sodipodi:rx="1.7246039"
       sodipodi:ry="1.7246039"
       d="m 210.97654,100.29043 c 0,0.95247 -0.77213,1.7246 -1.7246,1.7246 -0.95247,0 -1.72461,-0.77213 -1.72461,-1.7246 0,-0.952474 0.77214,-1.724606 1.72461,-1.724606 0.95247,0 1.7246,0.772132 1.7246,1.724606 z"
       transform="translate(-138,892.33067)" />
    <path
       transform="translate(-106,874.33067)"
       d="m 210.97654,100.29043 c 0,0.95247 -0.77213,1.7246 -1.7246,1.7246 -0.95247,0 -1.72461,-0.77213 -1.72461,-1.7246 0,-0.952474 0.77214,-1.724606 1.72461,-1.724606 0.95247,0 1.7246,0.772132 1.7246,1.724606 z"
       sodipodi:ry="1.7246039"
       sodipodi:rx="1.7246039"
       sodipodi:cy="100.29043"
       sodipodi:cx="209.25194"
       id="path8214"
       style="fill:#000000;fill-opacity:1;stroke:#000000;stroke-width:1.25;stroke-linecap:round;stroke-linejoin:round;stroke-miterlimit:10;stroke-opacity:1;stroke-dasharray:none;stroke-dashoffset:0"
       sodipodi:type="arc" />
    <rect
       y="889.8642"
       x="138.74339"
       height="124.01575"
       width="124.01575"
       id="rect8216"
       style="fill:#ffffff;fill-opacity:1;stroke:#000000;stroke-width:1.25;stroke-linecap:round;stroke-linejoin:round;stroke-miterlimit:10;stroke-opacity:1;stroke-dasharray:none;stroke-dashoffset:0" />
    <path
       transform="translate(-40,880.33067)"
       d="m 210.97654,100.29043 c 0,0.95247 -0.77213,1.7246 -1.7246,1.7246 -0.95247,0 -1.72461,-0.77213 -1.72461,-1.7246 0,-0.952474 0.77214,-1.724606 1.72461,-1.724606 0.95247,0 1.7246,0.772132 1.7246,1.724606 z"
       sodipodi:ry="1.7246039"
       sodipodi:rx="1.7246039"
       sodipodi:cy="100.29043"
       sodipodi:cx="209.25194"
       id="path8218"
       style="fill:#000000;fill-opacity:1;stroke:#000000;stroke-width:1.25;stroke-linecap:round;stroke-linejoin:round;stroke-miterlimit:10;stroke-opacity:1;stroke-dasharray:none;stroke-dashoffset:0"
       sodipodi:type="arc" />
    <path
       sodipodi:type="arc"
       style="fill:#000000;fill-opacity:1;stroke:#000000;stroke-width:1.25;stroke-linecap:round;stroke-linejoin:round;stroke-miterlimit:10;stroke-opacity:1;stroke-dasharray:none;stroke-dashoffset:0"
       id="path8220"
       sodipodi:cx="209.25194"
       sodipodi:cy="100.29043"
       sodipodi:rx="1.7246039"
       sodipodi:ry="1.7246039"
       d="m 210.97654,100.29043 c 0,0.95247 -0.77213,1.7246 -1.7246,1.7246 -0.95247,0 -1.72461,-0.77213 -1.72461,-1.7246 0,-0.952474 0.77214,-1.724606 1.72461,-1.724606 0.95247,0 1.7246,0.772132 1.7246,1.724606 z"
       transform="translate(-28,820.33067)" />
    <path
       transform="translate(-8,860.33067)"
       d="m 210.97654,100.29043 c 0,0.95247 -0.77213,1.7246 -1.7246,1.7246 -0.95247,0 -1.72461,-0.77213 -1.72461,-1.7246 0,-0.952474 0.77214,-1.724606 1.72461,-1.724606 0.95247,0 1.7246,0.772132 1.7246,1.724606 z"
       sodipodi:ry="1.7246039"
       sodipodi:rx="1.7246039"
       sodipodi:cy="100.29043"
       sodipodi:cx="209.25194"
       id="path8222"
       style="fill:#000000;fill-opacity:1;stroke:#000000;stroke-width:1.25;stroke-linecap:round;stroke-linejoin:round;stroke-miterlimit:10;stroke-opacity:1;stroke-dasharray:none;stroke-dashoffset:0"
       sodipodi:type="arc" />
    <path
       sodipodi:type="arc"
       style="fill:#000000;fill-opacity:1;stroke:#000000;stroke-width:1.25;stroke-linecap:round;stroke-linejoin:round;stroke-miterlimit:10;stroke-opacity:1;stroke-dasharray:none;stroke-dashoffset:0"
       id="path8224"
       sodipodi:cx="209.25194"
       sodipodi:cy="100.29043"
       sodipodi:rx="1.7246039"
       sodipodi:ry="1.7246039"
       d="m 210.97654,100.29043 c 0,0.95247 -0.77213,1.7246 -1.7246,1.7246 -0.95247,0 -1.72461,-0.77213 -1.72461,-1.7246 0,-0.952474 0.77214,-1.724606 1.72461,-1.724606 0.95247,0 1.7246,0.772132 1.7246,1.724606 z"
       transform="translate(12,832.33067)" />
    <path
       transform="translate(-8,892.33067)"
       d="m 210.97654,100.29043 c 0,0.95247 -0.77213,1.7246 -1.7246,1.7246 -0.95247,0 -1.72461,-0.77213 -1.72461,-1.7246 0,-0.952474 0.77214,-1.724606 1.72461,-1.724606 0.95247,0 1.7246,0.772132 1.7246,1.724606 z"
       sodipodi:ry="1.7246039"
       sodipodi:rx="1.7246039"
       sodipodi:cy="100.29043"
       sodipodi:cx="209.25194"
       id="path8226"
       style="fill:#000000;fill-opacity:1;stroke:#000000;stroke-width:1.25;stroke-linecap:round;stroke-linejoin:round;stroke-miterlimit:10;stroke-opacity:1;stroke-dasharray:none;stroke-dashoffset:0"
       sodipodi:type="arc" />
    <path
       sodipodi:type="arc"
       style="fill:#000000;fill-opacity:1;stroke:#000000;stroke-width:1.25;stroke-linecap:round;stroke-linejoin:round;stroke-miterlimit:10;stroke-opacity:1;stroke-dasharray:none;stroke-dashoffset:0"
       id="path8228"
       sodipodi:cx="209.25194"
       sodipodi:cy="100.29043"
       sodipodi:rx="1.7246039"
       sodipodi:ry="1.7246039"
       d="m 210.97654,100.29043 c 0,0.95247 -0.77213,1.7246 -1.7246,1.7246 -0.95247,0 -1.72461,-0.77213 -1.72461,-1.7246 0,-0.952474 0.77214,-1.724606 1.72461,-1.724606 0.95247,0 1.7246,0.772132 1.7246,1.724606 z"
       transform="translate(24,874.33067)" />
    <rect
       style="fill:#ffffff;fill-opacity:1;stroke:#000000;stroke-width:1.25;stroke-linecap:round;stroke-linejoin:round;stroke-miterlimit:10;stroke-opacity:1;stroke-dasharray:none;stroke-dashoffset:0"
       id="rect8230"
       width="124.01575"
       height="124.01575"
       x="268.74341"
       y="889.8642" />
    <path
       sodipodi:type="arc"
       style="fill:#000000;fill-opacity:1;stroke:#000000;stroke-width:1.25;stroke-linecap:round;stroke-linejoin:round;stroke-miterlimit:10;stroke-opacity:1;stroke-dasharray:none;stroke-dashoffset:0"
       id="path8232"
       sodipodi:cx="209.25194"
       sodipodi:cy="100.29043"
       sodipodi:rx="1.7246039"
       sodipodi:ry="1.7246039"
       d="m 210.97654,100.29043 c 0,0.95247 -0.77213,1.7246 -1.7246,1.7246 -0.95247,0 -1.72461,-0.77213 -1.72461,-1.7246 0,-0.952474 0.77214,-1.724606 1.72461,-1.724606 0.95247,0 1.7246,0.772132 1.7246,1.724606 z"
       transform="translate(90,880.33067)" />
    <path
       transform="translate(102,820.33067)"
       d="m 210.97654,100.29043 c 0,0.95247 -0.77213,1.7246 -1.7246,1.7246 -0.95247,0 -1.72461,-0.77213 -1.72461,-1.7246 0,-0.952474 0.77214,-1.724606 1.72461,-1.724606 0.95247,0 1.7246,0.772132 1.7246,1.724606 z"
       sodipodi:ry="1.7246039"
       sodipodi:rx="1.7246039"
       sodipodi:cy="100.29043"
       sodipodi:cx="209.25194"
       id="path8234"
       style="fill:#000000;fill-opacity:1;stroke:#000000;stroke-width:1.25;stroke-linecap:round;stroke-linejoin:round;stroke-miterlimit:10;stroke-opacity:1;stroke-dasharray:none;stroke-dashoffset:0"
       sodipodi:type="arc" />
    <path
       sodipodi:type="arc"
       style="fill:#000000;fill-opacity:1;stroke:#000000;stroke-width:1.25;stroke-linecap:round;stroke-linejoin:round;stroke-miterlimit:10;stroke-opacity:1;stroke-dasharray:none;stroke-dashoffset:0"
       id="path8236"
       sodipodi:cx="209.25194"
       sodipodi:cy="100.29043"
       sodipodi:rx="1.7246039"
       sodipodi:ry="1.7246039"
       d="m 210.97654,100.29043 c 0,0.95247 -0.77213,1.7246 -1.7246,1.7246 -0.95247,0 -1.72461,-0.77213 -1.72461,-1.7246 0,-0.952474 0.77214,-1.724606 1.72461,-1.724606 0.95247,0 1.7246,0.772132 1.7246,1.724606 z"
       transform="translate(122,860.33067)" />
    <path
       transform="translate(142,832.33067)"
       d="m 210.97654,100.29043 c 0,0.95247 -0.77213,1.7246 -1.7246,1.7246 -0.95247,0 -1.72461,-0.77213 -1.72461,-1.7246 0,-0.952474 0.77214,-1.724606 1.72461,-1.724606 0.95247,0 1.7246,0.772132 1.7246,1.724606 z"
       sodipodi:ry="1.7246039"
       sodipodi:rx="1.7246039"
       sodipodi:cy="100.29043"
       sodipodi:cx="209.25194"
       id="path8238"
       style="fill:#000000;fill-opacity:1;stroke:#000000;stroke-width:1.25;stroke-linecap:round;stroke-linejoin:round;stroke-miterlimit:10;stroke-opacity:1;stroke-dasharray:none;stroke-dashoffset:0"
       sodipodi:type="arc" />
    <path
       sodipodi:type="arc"
       style="fill:#000000;fill-opacity:1;stroke:#000000;stroke-width:1.25;stroke-linecap:round;stroke-linejoin:round;stroke-miterlimit:10;stroke-opacity:1;stroke-dasharray:none;stroke-dashoffset:0"
       id="path8240"
       sodipodi:cx="209.25194"
       sodipodi:cy="100.29043"
       sodipodi:rx="1.7246039"
       sodipodi:ry="1.7246039"
       d="m 210.97654,100.29043 c 0,0.95247 -0.77213,1.7246 -1.7246,1.7246 -0.95247,0 -1.72461,-0.77213 -1.72461,-1.7246 0,-0.952474 0.77214,-1.724606 1.72461,-1.724606 0.95247,0 1.7246,0.772132 1.7246,1.724606 z"
       transform="translate(122,892.33067)" />
    <path
       transform="translate(154,874.33067)"
       d="m 210.97654,100.29043 c 0,0.95247 -0.77213,1.7246 -1.7246,1.7246 -0.95247,0 -1.72461,-0.77213 -1.72461,-1.7246 0,-0.952474 0.77214,-1.724606 1.72461,-1.724606 0.95247,0 1.7246,0.772132 1.7246,1.724606 z"
       sodipodi:ry="1.7246039"
       sodipodi:rx="1.7246039"
       sodipodi:cy="100.29043"
       sodipodi:cx="209.25194"
       id="path8242"
       style="fill:#000000;fill-opacity:1;stroke:#000000;stroke-width:1.25;stroke-linecap:round;stroke-linejoin:round;stroke-miterlimit:10;stroke-opacity:1;stroke-dasharray:none;stroke-dashoffset:0"
       sodipodi:type="arc" />
    <rect
       y="889.8642"
       x="398.74341"
       height="124.01575"
       width="124.01575"
       id="rect8244"
       style="fill:none;stroke:#000000;stroke-width:1.25;stroke-linecap:round;stroke-linejoin:round;stroke-miterlimit:10;stroke-opacity:1;stroke-dasharray:none;stroke-dashoffset:0" />
    <path
       transform="translate(220,880.33067)"
       d="m 210.97654,100.29043 c 0,0.95247 -0.77213,1.7246 -1.7246,1.7246 -0.95247,0 -1.72461,-0.77213 -1.72461,-1.7246 0,-0.952474 0.77214,-1.724606 1.72461,-1.724606 0.95247,0 1.7246,0.772132 1.7246,1.724606 z"
       sodipodi:ry="1.7246039"
       sodipodi:rx="1.7246039"
       sodipodi:cy="100.29043"
       sodipodi:cx="209.25194"
       id="path8246"
       style="fill:#000000;fill-opacity:1;stroke:#000000;stroke-width:1.25;stroke-linecap:round;stroke-linejoin:round;stroke-miterlimit:10;stroke-opacity:1;stroke-dasharray:none;stroke-dashoffset:0"
       sodipodi:type="arc" />
    <path
       style="fill:none;stroke:#999999;stroke-width:1px;stroke-linecap:butt;stroke-linejoin:miter;stroke-opacity:1"
       d="m 441.3866,45.652458 40.07474,12.041237"
       id="path12757"
       inkscape:connector-curvature="0"
       transform="translate(0,875.19681)" />
    <path
       sodipodi:type="arc"
       style="fill:#000000;fill-opacity:1;stroke:#000000;stroke-width:1.25;stroke-linecap:round;stroke-linejoin:round;stroke-miterlimit:10;stroke-opacity:1;stroke-dasharray:none;stroke-dashoffset:0"
       id="path8248"
       sodipodi:cx="209.25194"
       sodipodi:cy="100.29043"
       sodipodi:rx="1.7246039"
       sodipodi:ry="1.7246039"
       d="m 210.97654,100.29043 c 0,0.95247 -0.77213,1.7246 -1.7246,1.7246 -0.95247,0 -1.72461,-0.77213 -1.72461,-1.7246 0,-0.952474 0.77214,-1.724606 1.72461,-1.724606 0.95247,0 1.7246,0.772132 1.7246,1.724606 z"
       transform="translate(232,820.33067)" />
    <path
       transform="translate(252,860.33067)"
       d="m 210.97654,100.29043 c 0,0.95247 -0.77213,1.7246 -1.7246,1.7246 -0.95247,0 -1.72461,-0.77213 -1.72461,-1.7246 0,-0.952474 0.77214,-1.724606 1.72461,-1.724606 0.95247,0 1.7246,0.772132 1.7246,1.724606 z"
       sodipodi:ry="1.7246039"
       sodipodi:rx="1.7246039"
       sodipodi:cy="100.29043"
       sodipodi:cx="209.25194"
       id="path8250"
       style="fill:#000000;fill-opacity:1;stroke:#000000;stroke-width:1.25;stroke-linecap:round;stroke-linejoin:round;stroke-miterlimit:10;stroke-opacity:1;stroke-dasharray:none;stroke-dashoffset:0"
       sodipodi:type="arc" />
    <path
       sodipodi:type="arc"
       style="fill:#000000;fill-opacity:1;stroke:#000000;stroke-width:1.25;stroke-linecap:round;stroke-linejoin:round;stroke-miterlimit:10;stroke-opacity:1;stroke-dasharray:none;stroke-dashoffset:0"
       id="path8252"
       sodipodi:cx="209.25194"
       sodipodi:cy="100.29043"
       sodipodi:rx="1.7246039"
       sodipodi:ry="1.7246039"
       d="m 210.97654,100.29043 c 0,0.95247 -0.77213,1.7246 -1.7246,1.7246 -0.95247,0 -1.72461,-0.77213 -1.72461,-1.7246 0,-0.952474 0.77214,-1.724606 1.72461,-1.724606 0.95247,0 1.7246,0.772132 1.7246,1.724606 z"
       transform="translate(272,832.33067)" />
    <path
       transform="translate(252,892.33067)"
       d="m 210.97654,100.29043 c 0,0.95247 -0.77213,1.7246 -1.7246,1.7246 -0.95247,0 -1.72461,-0.77213 -1.72461,-1.7246 0,-0.952474 0.77214,-1.724606 1.72461,-1.724606 0.95247,0 1.7246,0.772132 1.7246,1.724606 z"
       sodipodi:ry="1.7246039"
       sodipodi:rx="1.7246039"
       sodipodi:cy="100.29043"
       sodipodi:cx="209.25194"
       id="path8254"
       style="fill:#000000;fill-opacity:1;stroke:#000000;stroke-width:1.25;stroke-linecap:round;stroke-linejoin:round;stroke-miterlimit:10;stroke-opacity:1;stroke-dasharray:none;stroke-dashoffset:0"
       sodipodi:type="arc" />
    <path
       sodipodi:type="arc"
       style="fill:#000000;fill-opacity:1;stroke:#000000;stroke-width:1.25;stroke-linecap:round;stroke-linejoin:round;stroke-miterlimit:10;stroke-opacity:1;stroke-dasharray:none;stroke-dashoffset:0"
       id="path8256"
       sodipodi:cx="209.25194"
       sodipodi:cy="100.29043"
       sodipodi:rx="1.7246039"
       sodipodi:ry="1.7246039"
       d="m 210.97654,100.29043 c 0,0.95247 -0.77213,1.7246 -1.7246,1.7246 -0.95247,0 -1.72461,-0.77213 -1.72461,-1.7246 0,-0.952474 0.77214,-1.724606 1.72461,-1.724606 0.95247,0 1.7246,0.772132 1.7246,1.724606 z"
       transform="translate(284,874.33067)" />
    <path
       style="fill:none;stroke:#000000;stroke-width:0.99921262;stroke-linecap:butt;stroke-linejoin:miter;stroke-miterlimit:4;stroke-opacity:1;stroke-dasharray:none;marker-end:url(#Arrow2Mend)"
       d="m 39.41031,980.81149 30.081299,11.0425"
       id="path8258"
       inkscape:connector-curvature="0" />
    <path
       style="fill:none;stroke:#000000;stroke-width:1px;stroke-linecap:butt;stroke-linejoin:miter;stroke-opacity:1;marker-end:url(#Arrow2Mend)"
       d="m 71.395488,992.42516 0,-28.93898"
       id="path9846"
       inkscape:connector-curvature="0"
       sodipodi:nodetypes="cc" />
    <path
       style="fill:none;stroke:#000000;stroke-width:1px;stroke-linecap:butt;stroke-linejoin:miter;stroke-opacity:1;marker-end:url(#Arrow2Mend)"
       d="m 53.308631,920.83928 35.221774,10.85211"
       id="path10034"
       inkscape:connector-curvature="0" />
    <path
       style="fill:none;stroke:#000000;stroke-width:1px;stroke-linecap:butt;stroke-linejoin:miter;stroke-opacity:1;marker-end:url(#Arrow2Mend)"
       d="m 201.24008,960.63036 0.38078,29.51014"
       id="path10788"
       inkscape:connector-curvature="0" />
    <path
       style="fill:none;stroke:#000000;stroke-width:1px;stroke-linecap:butt;stroke-linejoin:miter;stroke-opacity:1;marker-end:url(#Arrow2Mend)"
       d="m 220.27888,934.7376 -16.94453,23.7985"
       id="path10976"
       inkscape:connector-curvature="0" />
    <path
       style="fill:none;stroke:#000000;stroke-width:1px;stroke-linecap:butt;stroke-linejoin:miter;stroke-opacity:1;marker-end:url(#Arrow2Mend)"
       d="m 231.13099,973.76713 -27.60625,-12.5656"
       id="path11164"
       inkscape:connector-curvature="0" />
    <path
       style="fill:none;stroke:#000000;stroke-width:1px;stroke-linecap:butt;stroke-linejoin:miter;stroke-opacity:1;marker-start:none;marker-end:url(#Arrow2Mend)"
       d="m 311.28433,920.64889 18.46763,37.31604"
       id="path11358"
       inkscape:connector-curvature="0"
       sodipodi:nodetypes="cc" />
    <path
       style="fill:none;stroke:#000000;stroke-width:1px;stroke-linecap:butt;stroke-linejoin:miter;stroke-opacity:1;marker-end:url(#Arrow2Mend)"
       d="m 299.48027,980.6211 29.12937,-18.46763"
       id="path12302"
       inkscape:connector-curvature="0"
       sodipodi:nodetypes="cc" />
    <path
       style="fill:none;stroke:#000000;stroke-width:1px;stroke-linecap:butt;stroke-linejoin:miter;stroke-opacity:1;marker-end:url(#Arrow2Mend)"
       d="m 331.08468,992.99632 -28.93897,-11.0425"
       id="path12494"
       inkscape:connector-curvature="0"
       sodipodi:nodetypes="cc" />
    <text
       xml:space="preserve"
       style="font-size:20px;font-style:normal;font-variant:normal;font-weight:normal;font-stretch:normal;line-height:125%;letter-spacing:0px;word-spacing:0px;fill:#000000;fill-opacity:1;stroke:none;font-family:Serif;-inkscape-font-specification:Serif"
       x="64.081345"
       y="1042.3622"
       id="text12684"
       sodipodi:linespacing="125%"><tspan
         sodipodi:role="line"
         id="tspan12686"
         x="64.081345"
         y="1042.3622">T</tspan></text>
    <text
       sodipodi:linespacing="125%"
       id="text12688"
       y="1042.3622"
       x="194.08134"
       style="font-size:20px;font-style:normal;font-variant:normal;font-weight:normal;font-stretch:normal;text-align:start;line-height:125%;letter-spacing:0px;word-spacing:0px;text-anchor:start;fill:#000000;fill-opacity:1;stroke:none;font-family:Serif;-inkscape-font-specification:Serif"
       xml:space="preserve"><tspan
         y="1042.3622"
         x="194.08134"
         id="tspan12690"
         sodipodi:role="line">T'</tspan></text>
    <text
       xml:space="preserve"
       style="font-size:20px;font-style:normal;font-variant:normal;font-weight:normal;font-stretch:normal;line-height:125%;letter-spacing:0px;word-spacing:0px;fill:#000000;fill-opacity:1;stroke:none;font-family:Serif;-inkscape-font-specification:Serif"
       x="324.08136"
       y="1042.3622"
       id="text12692"
       sodipodi:linespacing="125%"><tspan
         sodipodi:role="line"
         id="tspan12694"
         x="324.08136"
         y="1042.3622">T''</tspan></text>
    <text
       sodipodi:linespacing="125%"
       id="text12696"
       y="1042.3622"
       x="454.08136"
       style="font-size:20px;font-style:normal;font-variant:normal;font-weight:normal;font-stretch:normal;line-height:125%;letter-spacing:0px;word-spacing:0px;fill:#000000;fill-opacity:1;stroke:none;font-family:Serif;-inkscape-font-specification:Serif"
       xml:space="preserve"><tspan
         y="1042.3622"
         x="454.08136"
         id="tspan12698"
         sodipodi:role="line">A</tspan></text>
  </g>
</svg>
